<svg xmlns="http://www.w3.org/2000/svg" width="37.799" height="37.799" viewBox="0 0 37.799 37.799">
  <path id="ballina-icon" d="M871.458,117.313a1.322,1.322,0,0,1,2.644,0v5.278a1.322,1.322,0,0,1-2.644,0Zm17.587-4.918a1.317,1.317,0,0,1,2.634,0v2.672c0,7.211,0,10.821-2.426,13.333a8.043,8.043,0,0,1-5.06,2.255,61.755,61.755,0,0,1-7.893.284h-7.041c-6.993,0-10.5,0-12.954-2.54a8.571,8.571,0,0,1-2.151-5.183,68.2,68.2,0,0,1-.275-8.149V112.4c0-4.245,0-6.358,1.08-8.329S857.8,101,861.338,98.8l3.516-2.179c1.8-1.118,3.155-1.962,4.33-2.53a7.3,7.3,0,0,1,7.192,0c1.175.569,2.53,1.412,4.331,2.53l3.516,2.179c1.715,1.061,2.994,1.857,3.98,2.615a8.4,8.4,0,0,1,2.407,2.653,1.324,1.324,0,0,1-.531,1.781,1.307,1.307,0,0,1-1.781-.531,5.871,5.871,0,0,0-1.7-1.81c-.91-.7-2.132-1.459-3.753-2.473l-3.525-2.179c-1.715-1.071-3.013-1.867-4.084-2.4a4.772,4.772,0,0,0-4.918,0c-1.071.531-2.359,1.327-4.084,2.4l-3.516,2.179c-3.146,1.952-4.709,2.928-5.458,4.283-.749,1.374-.749,3.269-.749,7.079v2.672a67.7,67.7,0,0,0,.246,7.818,6.209,6.209,0,0,0,1.44,3.7c1.668,1.725,4.8,1.725,11.058,1.725H876.3a60.733,60.733,0,0,0,7.533-.256,5.729,5.729,0,0,0,3.525-1.469c1.687-1.753,1.687-5,1.687-11.513V112.4Z" transform="translate(-853.88 -93.14)" fill="#fefefe"/>
</svg>
