<svg xmlns="http://www.w3.org/2000/svg" width="32.37" height="31.622" viewBox="0 0 32.37 31.622">
  <path id="calendar-activities" d="M358.411,3669.76a1.131,1.131,0,0,1,1.128,1.128v1.156c1-.019,2.094-.019,3.307-.019h6.188c1.213,0,2.312,0,3.307.019v-1.156a1.128,1.128,0,1,1,2.255,0v1.251c.4.029.768.067,1.118.114a6.384,6.384,0,0,1,6.188,6.188,55.719,55.719,0,0,1,.227,6.671v3.184a55.721,55.721,0,0,1-.227,6.671,6.383,6.383,0,0,1-6.188,6.188,55.777,55.777,0,0,1-6.681.228h-6.188a55.689,55.689,0,0,1-6.671-.228,6.383,6.383,0,0,1-6.188-6.188,55.721,55.721,0,0,1-.227-6.671v-3.184a55.719,55.719,0,0,1,.227-6.671,6.384,6.384,0,0,1,6.188-6.188q.526-.071,1.109-.114v-1.251A1.131,1.131,0,0,1,358.411,3669.76Zm-1.943,4.729a4.915,4.915,0,0,0-3.023,1.222,4.966,4.966,0,0,0-1.222,3.023c-.038.265-.066.531-.085.815h27.613c-.028-.284-.057-.55-.095-.815a4.856,4.856,0,0,0-1.222-3.023,4.915,4.915,0,0,0-3.023-1.222,54.145,54.145,0,0,0-6.453-.208h-6.027A54.321,54.321,0,0,0,356.469,3674.489Zm-4.454,10.708c0-1.289,0-2.407.019-3.383h27.812c.019.976.028,2.094.028,3.383v3.013a53.661,53.661,0,0,1-.218,6.453,4.861,4.861,0,0,1-1.222,3.032,4.915,4.915,0,0,1-3.023,1.222,54.208,54.208,0,0,1-6.453.208h-6.027a54.384,54.384,0,0,1-6.463-.208,4.915,4.915,0,0,1-3.023-1.222,4.971,4.971,0,0,1-1.222-3.032,54.066,54.066,0,0,1-.208-6.453V3685.2Z" transform="translate(-349.76 -3669.76)" fill="#414a9a" fill-rule="evenodd"/>
</svg>
