<svg xmlns="http://www.w3.org/2000/svg" width="26.902" height="30.053" viewBox="0 0 26.902 30.053">
  <path id="Path_48" data-name="Path 48" d="M1526.09,126.345a1.046,1.046,0,0,0,.3-.739v-7.448a.509.509,0,0,1,.227-.417,7.452,7.452,0,0,1,5.543-1.2,20.977,20.977,0,0,1,5.155,1.791c4.226,1.886,8.462,3.781,13.465-.133a1,1,0,0,0,.294-.37,1.1,1.1,0,0,0,.114-.426V99.737a1.047,1.047,0,0,0-.3-.739,1.06,1.06,0,0,0-.749-.313,1,1,0,0,0-.379.076,1.067,1.067,0,0,0-.332.2l-.028.028a7.513,7.513,0,0,1-5.818,1.62,19.623,19.623,0,0,1-5.411-1.829,21.85,21.85,0,0,0-6.51-2.132,9.428,9.428,0,0,0-6.965,2.265,1.1,1.1,0,0,0-.294.37.944.944,0,0,0-.1.426l-.01.1v25.793a1.055,1.055,0,0,0,.313.739,1.038,1.038,0,0,0,.739.313,1.06,1.06,0,0,0,.749-.313Zm6.643-11.911a8.915,8.915,0,0,0-5.6.606.486.486,0,0,1-.237.057.5.5,0,0,1-.5-.493V100.523a.493.493,0,0,1,.227-.407,7.452,7.452,0,0,1,5.543-1.2,20.977,20.977,0,0,1,5.155,1.791,26.625,26.625,0,0,0,5.439,1.971,8.951,8.951,0,0,0,5.591-.6.438.438,0,0,1,.246-.066.5.5,0,0,1,.493.493v14.081a.471.471,0,0,1-.227.407,7.421,7.421,0,0,1-5.534,1.2,20.812,20.812,0,0,1-5.155-1.781,26.505,26.505,0,0,0-5.439-1.98Z" transform="translate(-1524.29 -96.605)" fill="#7c84bf"/>
</svg>
