<svg xmlns="http://www.w3.org/2000/svg" width="37.74" height="36.167" viewBox="0 0 37.74 36.167">
  <g id="Group_6" data-name="Group 6" transform="translate(0.785 0.785)">
    <path id="Path_40" data-name="Path 40" d="M1082.156,121.107a.867.867,0,0,1,.152-.009,1.391,1.391,0,0,1,1,.426c.332.322.407.9.332,2.217-.01.123-.01.246-.01.37a11.918,11.918,0,0,0,.171,2.018,7.143,7.143,0,0,1-3.544-1.071,3.272,3.272,0,0,1-.815-2.179v-.37l.408-.332.332-.407.739-.578h1.156l.076-.085Zm-23.3-26.267a5.765,5.765,0,0,0-3.705,10.13l5.847,5.108,2.3-2.388-6.008-5.193a2.3,2.3,0,0,1-.91-1.81v-.009a2.546,2.546,0,0,1,.749-1.8,2.364,2.364,0,0,1,1.724-.739h.161a2.293,2.293,0,0,1,1.734.815l5.269,6.093,2.388-2.378L1063.3,96.9a5.93,5.93,0,0,0-4.2-2.056h-.246ZM1088,101.757l-6.425-6.425a1.549,1.549,0,0,0-1.147-.5,1.57,1.57,0,0,0-1.156.5l-10.206,10.215-2.312,2.3-2.3,2.3-2.3,2.312-7.742,7.732a1.63,1.63,0,0,0-.493,1.156v6.425a1.65,1.65,0,0,0,1.649,1.649h6.415a1.693,1.693,0,0,0,1.156-.493l8.4-8.481,2.388-2.312.824-.824,2.312-2.3L1088,104.06a1.551,1.551,0,0,0,0-2.3h0Zm-26.76,24.372h-4.037v-4.037l18.45-18.44,4.037,4.037Zm20.752-20.752-4.037-4.037,2.473-2.549,4.113,4.122-2.549,2.464ZM1079.446,116l-5.107,5.022,1.81,1.734v.218a6.433,6.433,0,0,0,1.9,4.558c1.9,1.564,4.776,1.9,7.078,1.9a23.482,23.482,0,0,0,3.459-.246,1,1,0,0,0,.739-.663c0-.161-1.9-1.071-2.3-2.966s.578-4.529-1.478-6.415a4.689,4.689,0,0,0-3.269-1.327h-1.1l-1.725-1.81Z" transform="translate(-1053.15 -94.83)" fill="#7c84bf"/>
    <path id="_1" d="M1082.156,121.107a.867.867,0,0,1,.152-.009,1.391,1.391,0,0,1,1,.426c.332.322.407.9.332,2.217-.01.123-.01.246-.01.37a11.918,11.918,0,0,0,.171,2.018,7.143,7.143,0,0,1-3.544-1.071,3.272,3.272,0,0,1-.815-2.179v-.37l.408-.332.332-.407.739-.578h1.156m-23.225-26.353a5.765,5.765,0,0,0-3.705,10.13l5.847,5.108,2.3-2.388-6.008-5.193a2.3,2.3,0,0,1-.91-1.81v-.009a2.545,2.545,0,0,1,.749-1.8,2.364,2.364,0,0,1,1.724-.739h.161a2.293,2.293,0,0,1,1.734.815l5.269,6.093,2.388-2.378L1063.3,96.9a5.93,5.93,0,0,0-4.2-2.056h-.246ZM1088,101.757l-6.425-6.425a1.549,1.549,0,0,0-1.147-.5,1.57,1.57,0,0,0-1.156.5l-10.206,10.215-2.312,2.3-2.3,2.3-2.3,2.312-7.742,7.732a1.63,1.63,0,0,0-.493,1.156v6.425a1.65,1.65,0,0,0,1.649,1.649h6.415a1.693,1.693,0,0,0,1.156-.493l8.4-8.481,2.388-2.312.824-.824,2.312-2.3L1088,104.06a1.551,1.551,0,0,0,0-2.3Zm-26.76,24.372h-4.037v-4.037l18.45-18.44,4.037,4.037Zm20.752-20.752-4.037-4.037,2.473-2.549,4.113,4.122-2.549,2.464ZM1079.446,116l-5.107,5.022,1.81,1.734v.218a6.433,6.433,0,0,0,1.9,4.558c1.9,1.564,4.776,1.9,7.078,1.9a23.482,23.482,0,0,0,3.459-.246,1,1,0,0,0,.739-.663c0-.161-1.9-1.071-2.3-2.966s.578-4.529-1.478-6.415a4.689,4.689,0,0,0-3.269-1.327h-1.1l-1.725-1.81Z" transform="translate(-1053.15 -94.83)" fill="none" stroke="#2c2c39" stroke-linecap="round" stroke-linejoin="round" stroke-miterlimit="2.613" stroke-width="1.57"/>
  </g>
</svg>
