<svg id="lajmet-icon" xmlns="http://www.w3.org/2000/svg" width="19.767" height="18.905" viewBox="0 0 19.767 18.905">
  <path id="Path_54" data-name="Path 54" d="M494.643,1173.166c.028,0,.057-.009.085-.009a.768.768,0,0,1,.55.237c.18.18.218.493.18,1.213a1.4,1.4,0,0,0-.009.2,7.3,7.3,0,0,0,.095,1.109,3.979,3.979,0,0,1-1.933-.588,1.8,1.8,0,0,1-.455-1.194c0-.009.01-.009.01-.019v-.18l.218-.18.18-.227.407-.313h.625l.047-.047Zm-12.736-14.356a3.145,3.145,0,0,0-2.018,5.534l3.193,2.8,1.26-1.308L481.055,1163a1.276,1.276,0,0,1-.493-.995h0a1.367,1.367,0,0,1,.407-.986,1.315,1.315,0,0,1,.938-.407H482a1.279,1.279,0,0,1,.948.455l2.881,3.326,1.3-1.308-2.786-3.146a3.262,3.262,0,0,0-2.293-1.128h-.142Zm15.929,3.781-3.506-3.506a.86.86,0,0,0-1.26,0l-5.581,5.581-1.26,1.251-1.26,1.26-1.26,1.26-4.226,4.236a.86.86,0,0,0-.265.625v3.516a.9.9,0,0,0,.9.9h3.506a.907.907,0,0,0,.625-.275l4.6-4.634,1.3-1.26.455-.445,1.26-1.26,5.979-5.989a.841.841,0,0,0,0-1.26h0Zm-14.621,13.323h-2.208v-2.208l10.082-10.083,2.208,2.208Zm11.343-11.343-2.208-2.208,1.346-1.393,2.255,2.255-1.393,1.346Zm-1.393,5.809-2.8,2.739.995.948a.458.458,0,0,0-.01.114,3.506,3.506,0,0,0,1.042,2.492,6.16,6.16,0,0,0,3.866,1.042,12.235,12.235,0,0,0,1.9-.142.534.534,0,0,0,.4-.36c0-.085-1.033-.578-1.26-1.62s.322-2.473-.805-3.506a2.565,2.565,0,0,0-1.781-.72H494.1l-.938-.986Z" transform="translate(-478.79 -1158.81)" fill="#fefefe"/>
</svg>
