<svg xmlns="http://www.w3.org/2000/svg" width="162.404" height="59.728" viewBox="0 0 162.404 59.728">
  <g id="Group_28" data-name="Group 28" transform="translate(-337.084 -66.625)">
    <g id="logo">
      <path id="Path_22" data-name="Path 22" d="M396.941,78.482c-.18.028-.36.066-.55.095.161.834.313,1.658.464,2.483.18-.028.37-.066.559-.095C397.253,80.131,397.092,79.307,396.941,78.482Zm-26.665,9.874c-.19.095-.379.2-.569.3.379.824.758,1.639,1.128,2.454l.6-.284c-.379-.824-.768-1.649-1.156-2.473Zm6.6-6.4c.455,1.279.786,2.217,1.222,3.449C378.955,83.883,378.7,83.258,376.871,81.96Zm30.8,3.4c.313.161.711.36,1.393.711-.161-1.62,1.744-2.322,1.289-4.008C409.392,83.239,408.568,84.253,407.667,85.362Zm-19.53-9.182c-1.8,1.649-1.393,3.895.9,5.164C388.725,79.525,388.45,77.97,388.137,76.18Zm33.545,15a1.712,1.712,0,0,0-1.658-2.066,8.207,8.207,0,0,0-2.72.512,1.2,1.2,0,0,0,.085.805,10.053,10.053,0,0,0,2.2,1.886C420.829,92.98,421.616,92.4,421.682,91.18ZM390.535,75.241a10.06,10.06,0,0,1,.72,7.458c1.147-.114,2.047-.19,2.776-.265a19.362,19.362,0,0,1-.388-3.582,21.489,21.489,0,0,1,.938-3.61h-4.046ZM422.45,102.3c.474-.37.862-.644,1.232-.948.758-.625,1.545-.985,2.35-.114.606.673.341,1.677-.54,2.426-.436.36-.805.787-1.213,1.184.066.123.142.256.208.379a17.091,17.091,0,0,0,3.118-.057,1.892,1.892,0,0,0,1.166-1.232,4.145,4.145,0,0,0-4.027-4.738,25.411,25.411,0,0,0-3.411.739c.426.9.749,1.573,1.118,2.359Zm-61.432-2.378c-1.98,1.431-3.3,6.084-2.236,8.168a2.058,2.058,0,0,0,1.545.948,4.084,4.084,0,0,0,3.26-2c-.976-.152-1.744-.294-2.511-.37-.995-.095-1.639-.588-1.573-1.6s.72-1.44,1.753-1.383c1.734.1,3.43.294,4.766,1.781.152-.625.246-1.042.36-1.516-2.644-.265-4.065-2.094-5.363-4.027Zm41.22-16.6a18.747,18.747,0,0,1,1.251-2.966,19.386,19.386,0,0,1,2.075-2.35,5.521,5.521,0,0,0-6.169-1.63c.3,2.132.606,4.2.929,6.463C400.778,82.955,401.536,83.144,402.238,83.324ZM370.1,85.087a5.973,5.973,0,0,1,3.989,5.449c1.042-.872,1.99-1.658,3-2.5-2.644-1.7-2.577-4.435-2.8-7.012C372.038,81.012,370.683,82.329,370.1,85.087Zm42.064,2.975c.55.474,1.27,1.09,2.132,1.829a3.588,3.588,0,0,1,2.407-3.478,25.371,25.371,0,0,1,4.406-.635,21.885,21.885,0,0,0-2.445-2.89,3.432,3.432,0,0,0-5.25,1.564C413.126,85.589,412.642,86.679,412.159,88.062Zm-41.391,6.444c-2.947-1.232-3.449-3.847-3.9-6.453-3.392.1-4.283,3.127-3.8,7.619l5.714,2.322C369.318,97.055,369.991,95.861,370.768,94.506ZM381.5,85.475c1.772-.673,3.364-1.279,5-1.9-2.492-2.824-3.25-5.79-1.175-9.078a6.4,6.4,0,0,0-7.676,4.293c2.369,1.526,4.3,3.364,3.847,6.69Zm5.032,1.6c2.2,2.947,4.236,5.686,6.387,8.576,2.208-3.279,4.312-6.415,6.491-9.646A27.232,27.232,0,0,0,386.536,87.077Zm26.409-6.7c4.681-2.454,8.576-.929,10.471,4.359.768,2.17,1.279,4.435,1.867,6.671a5.8,5.8,0,0,1-.995,4.71c4.1.36,6.093,1.943,7.078,5.581,1.109,4.046-1.279,7-5.543,6.842-.436-.019-.872-.085-1.507-.142a27.44,27.44,0,0,1,.578,3.44c.142,3.525.208,7.05.256,10.575.019,1-.284,1.924-1.459,2.066-.843.095-1.507-.957-1.421-2.2a42.081,42.081,0,0,0-.986-14.11c-2.341-8.727-6.832-15.863-15.143-20.089-1.137-.578-2.369-.967-3.629-1.459-1.98,3.269-3.79,6.51-5.856,9.571a9.435,9.435,0,0,0-1.573,6.273c.341,4.994.417,10,.578,15,.057,1.639-.673,2.312-2.028,2.236-.967-.047-1.023-.6-1.061-1.317-.313-6.074-.606-12.139-.995-18.2a5.96,5.96,0,0,0-.995-2.786c-1.933-2.843-4.027-5.562-5.989-8.4-.55-.8-.995-.862-1.848-.493-6.008,2.577-9.912,7.154-12.461,13.029a30.891,30.891,0,0,0-1.772,20.553c.218.824.417,1.649.569,2.483.171.91.057,1.781-.995,2.037-1.109.265-1.478-.521-1.715-1.412-1.308-4.9-2.369-9.817-1.27-15.1-.91.54-1.582,1.023-2.331,1.374-3.667,1.725-6.794-.009-7-4.056-.218-4,.351-7.8,4.075-10.31.246-.161.332-.663.351-1.014.133-1.829.085-3.667.341-5.468a6.276,6.276,0,0,1,5.534-5.676,1.623,1.623,0,0,0,1.5-1.355c.986-3.326,2.994-5.534,6.718-5.723a1.423,1.423,0,0,0,.9-.768c2.378-5.269,7.477-7.2,12.641-4.795a2.623,2.623,0,0,0,1.251.114,27.588,27.588,0,0,1,4.378-.417,12.255,12.255,0,0,1,3.032,1.147,2.8,2.8,0,0,0,1.507.275,9.789,9.789,0,0,1,10.168,2.776c.644.635,1.45,1.118,2.142,1.725.891.777,1.744,1.6,2.644,2.445Z" transform="translate(-18.643 -3.736)" fill="#fefefe"/>
      <path id="Path_23" data-name="Path 23" d="M473.49,85.85c2.426,3.809,4.738,7.467,7.164,11.276,2.6-3.951,5.06-7.7,7.657-11.646a26.549,26.549,0,0,0-14.82.37Zm36.293,14.062c.388.7.749,1.355,1.194,2.161.872-.4,1.706-.711,2.464-1.137a3.648,3.648,0,0,1,3.914.047,5.043,5.043,0,0,0,3.847.493c.388-.076,1.09-.1,1.166.066a2.068,2.068,0,0,1,.066,1.431,1.334,1.334,0,0,1-.957.8,10.684,10.684,0,0,1-3.667-.426,4.308,4.308,0,0,0-4.482.417,10.805,10.805,0,0,1-1.374.749,39.639,39.639,0,0,1,1.071,16.517,13.951,13.951,0,0,1-.881,3.08c-.152.37-.843.843-1.147.758-.436-.133-.787-.682-1.09-1.118a1.092,1.092,0,0,1,0-.777c1.317-4.691.91-9.391-.057-14.062a29.22,29.22,0,0,0-1.6-5.373c-3.3-7.912-9.078-13.418-16.933-17.095q-2.1,3.17-4.2,6.32c-1.232,1.867-2.388,3.781-3.705,5.591a5.94,5.94,0,0,0-1.128,3.715c.009,5.458-.066,10.907-.114,16.355a2.654,2.654,0,0,1,0,.275c-.009,1.734-.426,2.435-1.431,2.426-1.137-.009-1.725-.843-1.715-2.54.009-5.714.057-11.437.057-17.161a3.038,3.038,0,0,0-.322-1.516c-2.568-4.084-5.174-8.14-7.77-12.2-.114-.18-.265-.341-.464-.6-5.723,2.682-10.859,5.97-13.977,11.741a41.506,41.506,0,0,0-5.126,18.535,58.03,58.03,0,0,0,.341,6.008c.057.862.227,1.677-.957,2.009a1.421,1.421,0,0,1-2-1.184,32.641,32.641,0,0,1-.5-6.491c.237-3.724.824-7.439,1.279-11.248-1.554-.1-2.748-1.289-3.923-2.606a3.44,3.44,0,0,0-4.008-.995c-.777.284-1.7.578-1.933-.6-.19-.976.208-1.81,1.384-1.819a27.447,27.447,0,0,1,3.847.161,2.355,2.355,0,0,1,1.241.881,6.847,6.847,0,0,0,4.511,2.577c.5-1.241,1.023-2.511,1.526-3.79.057-.142.085-.407,0-.493-1.222-1.279-2-2.938-4.141-3.3a4.675,4.675,0,0,1-4.008-5.032c.047-.5.711-.938,1.052-1.355a19.889,19.889,0,0,0,1.924,3.184,7.769,7.769,0,0,0,2.236,1.365c1.469.8,2.956,1.564,4.5,2.388.881-1.279,1.876-2.739,2.975-4.34-2.284.085-3.288-1.412-4.2-3.07a3.316,3.316,0,0,0-2.994-1.687,4.121,4.121,0,0,1-1.706-.559c-.284-.18-.616-.768-.521-1.014a2.13,2.13,0,0,1,1.014-1.194c1.232-.417,4.387.985,4.937,2.151.929,1.924,2.653,2.824,4.463,3.61a1.313,1.313,0,0,0,1.62-1.554c-.512-1.582-.72-3.174-2.426-4.368a4.731,4.731,0,0,1-1.9-5.335c.389-1.317.36-1.346,2.047-1.374a13.321,13.321,0,0,1,.313,2.35c-.095,2.227,1.336,3.269,2.919,4.406.815.578,1.222,1.725,1.914,2.748.9-.531,1.943-1.137,3.042-1.781a5.909,5.909,0,0,1-1.317-4.681,3.974,3.974,0,0,0-1.876-3.743,11.845,11.845,0,0,1-1.772-2c1.649-.976,2.938-.815,3.876.275a5.511,5.511,0,0,1,1.592,4.368,6.816,6.816,0,0,0,1.478,4.7c1.421-.569,2.814-1.118,4.321-1.715-.436-1.289-.474-2.587-1.962-3.4-2.056-1.118-2.9-4.624-1.838-6.671.171-.332.711-.768.957-.7a1.514,1.514,0,0,1,.853.957,7.582,7.582,0,0,1,.265,2.123c.01,2.018,1.346,2.994,2.824,4.037.815.578,1.251,1.706,2.018,2.814,1.137-.2,2.568-.445,4.046-.7-.057-1.554.085-2.9-1.166-4.141-1.582-1.573-1.507-4.984-.114-6.737a1.56,1.56,0,0,1,1.042-.5.659.659,0,0,1,.152.019c.294.095.54.72.578,1.128a4.413,4.413,0,0,1-.171,1.725c-.682,2.132.341,3.61,1.592,5.174a11.948,11.948,0,0,1,1.26,3.269c.786.047,1.791.114,2.5.152a26.9,26.9,0,0,1,1.744-3.866,4.561,4.561,0,0,0,.512-4.662,4.311,4.311,0,0,1-.256-2.047c.038-.322.578-.739.957-.805a1.1,1.1,0,0,1,.9.635,44.589,44.589,0,0,1,.948,4.842c.057.493-.36,1.042-.559,1.564-.493,1.317-1.042,2.615-1.421,3.961-.085.284.37.948.711,1.08a35.3,35.3,0,0,0,3.44.967,8.31,8.31,0,0,0,.7-5.78c-.351-1.488,1.251-4.842,2.644-5.288.493-.161,1.128.142,1.7.237-.114.606-.009,1.545-.36,1.763-2.161,1.355-2.2,3.193-1.7,5.382a4.022,4.022,0,0,1-1.184,4.3c1.08.483,1.962.862,2.833,1.241.1-.057.208-.085.237-.142a22.261,22.261,0,0,1,3.222-5.922c.815-.967.569-2.814.815-4.425,1.3-.379,2.236.426,2.151,2.492a6.169,6.169,0,0,1-2.246,4.823c-.957.768-1.99,3.79-1.383,4.766a11.21,11.21,0,0,0,2.274,2.066,6.927,6.927,0,0,0,1.668-4.681c.038-1.933,2.862-4.463,4.605-4.15.407.076,1.118.341,1.109.483a3.934,3.934,0,0,1-.5,1.564,1.353,1.353,0,0,1-.758.493c-2.227.8-2.577,1.421-2.814,3.79a25.8,25.8,0,0,1-1.052,4.122c-.142-.009-.294-.028-.445-.038.464.531.929,1.052,1.222,1.383,1.867-.787,3.61-1.507,5.335-2.274a4.029,4.029,0,0,0,2.378-3.013c.095-.426.54-.768.824-1.147.322.464.881.91.929,1.4.246,2.739-2.454,4.852-4.6,5.193-.957.161-1.819,1.1-2.663,1.763-.142.114-.038.654.085.938a5.632,5.632,0,0,0,.682.995,2.882,2.882,0,0,0,5.221-.464,5.144,5.144,0,0,1,3.525-2.814,4.391,4.391,0,0,1,2.644.4c.351.161.341,1.1.521,1.753-1.052.047-1.8.019-2.54.123a4.261,4.261,0,0,0-3.042,2.4,4.571,4.571,0,0,1-3.032,2.378,3.036,3.036,0,0,0-.635.36Z" transform="translate(-23.043 -3.685)" fill="#fefefe"/>
    </g>
    <path id="Path_24" data-name="Path 24" d="M482.217,132.693c-4.274.028-8.092-1.137-10.717-4.814a10.237,10.237,0,0,1-1.147-3c-.2-.682-.275-1.7.663-1.706a4.618,4.618,0,0,1,2.54.976,5.582,5.582,0,0,1,1.194,1.9,6.6,6.6,0,0,0,4.586,3.165,13.525,13.525,0,0,0,11.314-2.246c.72-.5,1.08-1.5,1.7-2.179a4.236,4.236,0,0,1,1.677-1.365c1.241-.36,1.857.445,1.658,1.715-.483,2.994-2.691,4.435-5.1,5.581-2.615,1.251-5.278,2.473-8.367,1.971Z" transform="translate(-24.644 -6.456)" fill="#fefefe"/>
    <path id="Path_25" data-name="Path 25" d="M397.166,130.836c-5.515-.294-9.732-1.592-12.233-6a9.054,9.054,0,0,1-.862-3.715,1.732,1.732,0,0,1,1.118-1.327c.445-.076,1.431.54,1.459.919.275,3.487,2.388,5.392,5.42,6.444a12.014,12.014,0,0,0,10.689-.976c2.066-1.279,3.61-2.9,3.895-5.449.1-.938.54-1.715,1.62-1.507,1.1.208,1.26,1.033,1.1,2.066-.654,4.406-3.487,6.936-7.372,8.415a29.987,29.987,0,0,1-4.833,1.128Z" transform="translate(-20.129 -6.247)" fill="#fefefe"/>
    <path id="Path_26" data-name="Path 26" d="M494.956,102.32c4.075.171,7.581,2.255,8,6.51.133,1.327-.256,2.018-1.346,2.179-1.251.18-1.488-.663-1.63-1.62-.445-3.137-2.3-3.942-5.458-4.131a4.88,4.88,0,0,0-4.871,4.1c-.208,1.194-.768,1.867-2.056,1.753a1.3,1.3,0,0,1-1.308-1.81,8.857,8.857,0,0,1,8.67-6.984Z" transform="translate(-25.482 -5.363)" fill="#fefefe"/>
    <path id="Path_27" data-name="Path 27" d="M475.374,109.408c-.284,1.166-.654,1.848-1.8,1.952-1.166.114-1.44-.635-1.554-1.545-.379-3.137-2.17-3.97-5.373-4.226a5.048,5.048,0,0,0-4.984,4.179c-.18,1.052-.625,1.725-1.819,1.677-1.27-.047-1.876-.7-1.421-1.9,1.023-2.757,2.284-5.344,5.439-6.311,3.639-1.118,6.965-.578,9.6,2.179.967,1.014,1.289,2.644,1.914,4Z" transform="translate(-24.017 -5.382)" fill="#fefefe"/>
    <path id="Path_28" data-name="Path 28" d="M382.238,101.78a6.629,6.629,0,0,1,6.51,7.069c-.038.521-.521.995-.8,1.5a16.35,16.35,0,0,1-1.251-1.317,2.853,2.853,0,0,1-.246-.9c-.606-2.407-1.639-3.383-3.838-3.62a4.647,4.647,0,0,0-4.908,2.691c-.36.72-.512,1.535-.891,2.227a4.688,4.688,0,0,1-1.071.995c-.265-.417-.73-.805-.768-1.241-.256-2.587,2.151-6.112,4.653-6.851C380.484,102.074,381.366,101.96,382.238,101.78Z" transform="translate(-19.651 -5.334)" fill="#fefefe"/>
    <path id="Path_29" data-name="Path 29" d="M408.719,102.44c4.046.019,7.069,2.644,7.477,6.311.066.569-.417,1.2-.654,1.81a7.523,7.523,0,0,1-1.308-1.26c-.512-.824-.777-1.8-1.317-2.606-1.213-1.81-3.08-1.98-5.013-1.677a3.784,3.784,0,0,0-3.051,3.013,5.312,5.312,0,0,1-.426,1.393,6.388,6.388,0,0,1-1.156,1.1c-.294-.445-.8-.862-.862-1.336a6.429,6.429,0,0,1,4.833-6.538,13.248,13.248,0,0,1,1.478-.208Z" transform="translate(-21.088 -5.369)" fill="#fefefe"/>
    <path id="Path_30" data-name="Path 30" d="M467.44,112.1a1.883,1.883,0,1,1-.047-3.762,1.887,1.887,0,1,1,.047,3.762Z" transform="translate(-24.394 -5.678)" fill="#fefefe"/>
    <path id="Path_31" data-name="Path 31" d="M409.669,110.8a1.9,1.9,0,0,1-2.009-1.857,1.945,1.945,0,0,1,1.876-1.876,1.872,1.872,0,1,1,.133,3.734Z" transform="translate(-21.365 -5.611)" fill="#fefefe"/>
    <path id="Path_32" data-name="Path 32" d="M497.408,109.866a2.013,2.013,0,1,1-2.16-1.876A1.985,1.985,0,0,1,497.408,109.866Z" transform="translate(-25.858 -5.66)" fill="#fefefe"/>
    <path id="Path_33" data-name="Path 33" d="M383.952,109.164a1.861,1.861,0,0,1-1.9,1.848,1.949,1.949,0,0,1-1.867-1.753,1.854,1.854,0,0,1,1.9-1.829A1.832,1.832,0,0,1,383.952,109.164Z" transform="translate(-19.925 -5.63)" fill="#fefefe"/>
  </g>
</svg>
